<svg xmlns="http://www.w3.org/2000/svg" width="1200" height="900" viewBox="0 0 1200 900"><defs><linearGradient id="g" x1="0" y1="0" x2="1" y2="1"><stop stop-color="#0d1b3d"/><stop offset="1" stop-color="#0fae9a"/></linearGradient></defs><rect width="1200" height="900" rx="40" fill="#f5f7ff"/><rect x="70" y="70" width="1060" height="760" rx="34" fill="url(#g)"/><text x="120" y="185" fill="#4ce0ca" font-family="Arial,sans-serif" font-size="34" font-weight="700">AI AGENT QA PLATFORM</text><text x="120" y="285" fill="white" font-family="Arial,sans-serif" font-size="82" font-weight="800">VOC Improve</text><text x="120" y="350" fill="#d9e3f5" font-family="Arial,sans-serif" font-size="34">Multi-Agent · LLM Judge · Release Gate</text><g font-family="Arial,sans-serif" font-weight="700" font-size="22" text-anchor="middle"><g fill="white"><rect x="120" y="470" width="145" height="85" rx="18" fill="#ffffff1f" stroke="#ffffff55"/><text x="192" y="520">Interpreter</text><rect x="285" y="470" width="145" height="85" rx="18" fill="#ffffff1f" stroke="#ffffff55"/><text x="357" y="520">Retriever</text><rect x="450" y="470" width="145" height="85" rx="18" fill="#ffffff1f" stroke="#ffffff55"/><text x="522" y="520">Summarizer</text><rect x="615" y="470" width="145" height="85" rx="18" fill="#ffffff1f" stroke="#ffffff55"/><text x="687" y="520">Evaluator</text><rect x="780" y="470" width="145" height="85" rx="18" fill="#ffffff1f" stroke="#ffffff55"/><text x="852" y="520">Critic</text><rect x="945" y="470" width="145" height="85" rx="18" fill="#ffffff1f" stroke="#ffffff55"/><text x="1017" y="520">Improver</text></g></g><g font-family="Arial,sans-serif"><text x="125" y="680" fill="white" font-size="64" font-weight="800">70 TESTS</text><text x="480" y="680" fill="#4ce0ca" font-size="64" font-weight="800">92.9% PASS</text><text x="125" y="745" fill="#d9e3f5" font-size="29">65 PASS · 5 FAIL · Critical 0</text></g></svg>